<?xml version="1.0" encoding="UTF-8"?>
<svg id="Capa_1" xmlns="http://www.w3.org/2000/svg" version="1.1" viewBox="0 0 1417.3 1417.3">
  <!-- Generator: Adobe Illustrator 30.0.0, SVG Export Plug-In . SVG Version: 2.1.1 Build 123)  -->
  <defs>
    <style>
      .st0 {
        fill: #fff;
      }

      .st1 {
        fill: #000014;
      }
    </style>
  </defs>
  <path class="st1" d="M1417.3,708.7c0,167.1-57.8,320.7-154.6,441.9-11.4,14.2-23.3,28-35.6,41.3-129.4,138.7-313.8,225.5-518.4,225.5s-397.1-90.6-526.9-234.7c-11.7-13-22.9-26.4-33.6-40.2C55.3,1022.6,0,872.1,0,708.7,0,317.3,317.3,0,708.7,0s708.7,317.3,708.7,708.7Z"/>
  <path class="st0" d="M689.7,659v402.6l-4.3,22.8-10,27.1-11.4,20-12.9,15.7-17.1,17.1-18.6,12.9-22.8,11.4-22.8,7.1-15.7,2.9h-40l-28.6-5.7-22.8-8.6-21.4-11.4-17.1-12.9-14.3-12.9-15.7-20-12.9-22.8-10-27.1-5.7-25.7-1.4-10-12.9-234.1-4.3-79.9v-40l4.3-27.1,7.1-24.3,12.9-27.1,28.6-42.8,10-21.4,8.6-30,2.9-21.4v-32.8l-4.3-34.3-7.1-28.5-8.6-22.8-12.9-24.3-12.9-17.1-12.9-14.3-15.7-11.4-12.9-5.7-7.1-1.4h-12.9l-14.3,4.3-14.3,8.6-14.3,12.9-11.4,14.3-10,15.7-11.4,22.8-8.6,24.3-5.7,24.3-2.9,18.6-1.4,18.6v25.7l4.3,30,7.1,24.3,11.4,22.8,10,15.7,14.3,21.4,12.9,24.3,10,30,4.3,27.1v44.3l-15.7,291.2-2.9,31.4-5.7,24.3-10,27.1-12.9,22.8-12.9,15.7-11.4,12.9-18.6,14.3-20,11.4-2.5,1.1c-11.7-13-22.9-26.4-33.6-40.2l3.2-.9,22.8-11.4,12.9-10,12.9-12.9,12.9-20,8.6-21.4,5.7-27.1,10-179.9,7.1-131.4v-37.1l-5.7-28.6-8.6-21.4-12.9-21.4-14.3-20-14.3-27.1-8.6-22.8-7.2-30-2.9-24.3v-35.7l4.3-37.1,8.6-35.7,8.6-24.3,12.8-27.1,17.1-25.7,15.7-18.6,11.4-11.4,17.1-12.9,24.3-11.4,20-4.3h20l20,4.3,17.1,7.1,17.1,10,18.6,17.1,15.7,17.1,14.3,21.4,15.7,30,10,27.1,8.6,35.7,2.9,18.6,1.4,17.1v42.8l-4.3,28.6-8.6,30-10,24.3-14.3,24.3-11.4,15.7-11.4,20-7.2,17.1-5.7,22.8-1.4,11.4v28.6l17.1,315.5,4.3,22.8,7.1,20,8.6,17.1,11.4,14.3,11.4,11.4,20,12.9,17.1,7.2,15.7,4.3,10,1.4h30l22.8-5.7,20-10,14.3-11.4,12.9-14.3,11.4-20,5.7-15.7,2.9-15.7,1.4-368.3-7.1-2.9-22.9-12.9-18.6-14.3-10-10-14.3-20-10-20-7.1-22.8-2.9-22.8,1.4-51.4,8.6-225.6,1.4-12.9,5.7-8.6,7.2-5.7,7.1-2.9,12.9,1.4,8.6,5.7,5.7,8.6,1.4,4.3v18.6l-8.6,227v51.4l7.2,21.4,10,17.1,15.7,15.7,24.3,14.3,32.8,18.6Z"/>
  <path class="st0" d="M1289.3,727.5v18.6l-2.9,20-8.6,25.7-11.4,21.4-12.9,15.7-12.9,12.9-14.3,10-32.9,17.1-27.1,12.9v169.9l4.3,21.4,10,22.8,12.8,17.1,11.4,11.4,20,12.9,17.1,7.2,20,5.7.5.5c-11.4,14.2-23.3,28-35.6,41.3l-6.3-1.8-27.1-12.9-15.7-11.4-14.3-12.9-11.4-11.4-12.9-18.6-11.4-21.4-7.1-21.4-4.3-24.3v-205.6l61.4-30,22.8-11.4,14.3-11.4,11.4-14.3,8.6-18.6,4.3-22.8-1.4-21.4-11.4-38.6-57.1-185.6-31.4-102.8-20-65.7-5.7-11.4-8.6-10-12.9-7.2h-12.9l-17.1,5.7-1.4,1.4-1.4,748.1-4.3,30-8.6,24.3-11.4,21.4-14.3,18.6-17.1,17.1-18.6,12.9-22.8,11.4-18.6,5.7-15.7,2.9h-38.5l-25.7-5.7-18.6-7.1-21.4-11.4-14.3-11.4-14.3-12.9-15.7-20-11.4-20-8.6-24.3-4.3-20-1.4-14.3v-392.6l41.4-22.8,15.7-10,12.9-11.4,10-14.3,7.2-15.7,4.3-20v-24.3l-8.6-228.4v-40l5.7-8.6,8.6-7.1,12.9-1.4,11.4,4.3,7.1,8.6,2.9,7.1,7.1,178.5,2.9,78.5v38.6l-4.3,22.8-7.2,18.6-8.6,17.1-14.3,18.6-15.7,15.7-21.4,14.3-18.6,10v371.2l5.7,21.4,11.4,22.8,12.9,15.7,12.9,11.4,17.1,10,21.4,7.1,8.6,1.4h28.6l21.4-5.7,20-10,15.7-12.8,11.4-14.3,11.4-22.8,4.3-15.7,1.4-14.3,1.4-758.1,8.6-17.1,12.8-12.9,22.8-11.4,17.1-4.3h27.1l17.1,5.7,14.3,8.6,14.3,12.9,10,11.4,11.4,22.8,38.6,125.6,35.7,117.1,25.7,82.8,20,65.7,2.8,12.8,1.4,12.9Z"/>
  <path class="st0" d="M671.1,254.9l12.8,1.4,10,7.1,4.3,7.1,1.4,7.1v217l-4.3,11.4-7.1,7.1-11.4,4.3-14.3-2.9-7.1-5.7-4.3-7.1-1.4-7.1v-217l2.9-10,5.7-7.1,7.1-4.3,5.7-1.4Z"/>
  <path class="st0" d="M763.9,254.9l11.4,1.4,8.6,5.7,5.7,7.1,1.4,4.3v225.6l-7.1,11.4-8.6,5.7-11.4,1.4-11.4-4.3-8.6-10-1.4-4.3v-225.6l4.3-8.6,8.6-7.1,8.6-2.9Z"/>
</svg>